<mxfile host="app.diagrams.net" modified="2023-04-21T11:52:41.005Z" agent="Mozilla/5.0 (Macintosh; Intel Mac OS X 10_15_7) AppleWebKit/537.36 (KHTML, like Gecko) Chrome/111.0.0.0 Safari/537.36" version="21.2.1" etag="ykiGJUTg38G25mE40PAX" type="github">
  <diagram name="第 1 页" id="Phhg9D2hE7b-cNYU96_Z">
    <mxGraphModel>
      <root>
        <mxCell id="0" />
        <mxCell id="1" parent="0" />
      </root>
    </mxGraphModel>
  </diagram>
</mxfile>
